IKResults
version=1
nRows=16
nColumns=44
inDegrees=yes

Units are S.I. units (second, meters, Newtons, ...)
Angles are in degrees.

endheader
time	ground_spine_rot_x	ground_spine_rot_y	ground_spine_rot_z	ground_spine_tx	ground_spine_ty	ground_spine_tz	clav_prot	clav_elev	scapula_abduction	scapula_elevation	scapula_upward_rot	scapula_winging	plane_elv	shoulder_elv	axial_rot	elbow_flexion	pro_sup	clav_prot_l	clav_elev_l	pitch2	roll2	yaw2	aux7jnt_r3	aux7jnt_r1	aux7jnt_r2	aux6jnt_r3	aux6jnt_r1	aux6jnt_r2	aux5jnt_r3	aux5jnt_r1	aux5jnt_r2	aux4jnt_r3	aux4jnt_r1	aux4jnt_r2	aux3jnt_r3	aux3jnt_r1	aux3jnt_r2	pitch1	roll1	yaw1	aux1jnt_r3	aux1jnt_r1	aux1jnt_r2
     42.21000000	      1.72729004	     -3.37543759	      0.13948756	     -0.81601595	      1.09561894	      0.91088761	    -20.89224427	     -2.53274097	     11.04336773	    -16.85802244	     11.99775194	     16.16826402	    -68.40471880	     39.67772957	     52.24484210	      0.00000000	     34.32000000	     30.42326055	     -1.16071730	      0.14906004	     -0.00363515	     -0.01430820	      1.59707703	     -0.02853418	     -0.15412233	      1.87890954	     -0.03269981	     -0.17953602	      1.87890954	     -0.04498821	     -0.17953602	      1.40918216	     -0.04498821	     -0.17953602	      0.93945477	     -0.04082270	     -0.07706117	     -0.21622247	     -0.03018805	     -0.01240638	     -6.88807770	     -0.86482390	     -0.07890264
     42.22000000	      1.69979334	     -3.37357604	      0.07203651	     -0.81630140	      1.09555175	      0.91106629	    -20.99251596	     -2.59850826	     10.91010419	    -16.93054117	     11.99684989	     16.27067232	    -68.55310984	     39.53555835	     50.66128032	      0.00000000	     34.32000000	     30.42326055	     -1.16071730	      0.16687441	      0.00152160	     -0.01477018	      1.78794585	      0.01194380	     -0.15909855	      2.10346055	      0.01368744	     -0.18533277	      2.10346055	      0.01883110	     -0.18533277	      1.57759542	      0.01883110	     -0.18533277	      1.05173028	      0.01708751	     -0.07954927	     -0.23883088	     -0.05175885	     -0.01165831	     -7.60830112	     -1.48278181	     -0.07414500
     42.23000000	      1.71749484	     -3.41943108	      0.10912173	     -0.81608015	      1.09555562	      0.91111535	    -20.82627732	     -2.57531800	     11.16039175	    -16.88992601	     11.99784801	     16.12269494	    -69.52693765	     39.79138631	     50.46761182	      0.00000000	     34.32000000	     30.42326055	     -1.16071730	      0.16183424	     -0.01257202	     -0.01755788	      1.73394385	     -0.09868422	     -0.18912660	      2.03992894	     -0.11309085	     -0.22031224	      2.03992894	     -0.15558974	     -0.22031224	      1.52994670	     -0.15558974	     -0.22031224	      1.01996447	     -0.14118352	     -0.09456330	     -0.23498219	     -0.04324799	     -0.00410246	     -7.48569556	     -1.23896352	     -0.02609098
     42.24000000	      1.71922275	     -3.41920257	      0.08399836	     -0.81624672	      1.09549473	      0.91112631	    -20.87588287	     -2.54354282	     11.07291534	    -16.86627901	     11.99811948	     16.15700116	    -69.58204901	     39.74656195	     49.36761714	      0.00000000	     34.32000000	     30.42326055	     -1.16071730	      0.16098344	     -0.01919589	     -0.01714228	      1.72482814	     -0.15067842	     -0.18464991	      2.02920461	     -0.17267555	     -0.21509738	      2.02920461	     -0.23756601	     -0.21509738	      1.52190345	     -0.23756601	     -0.21509738	      1.01460230	     -0.21556952	     -0.09232496	     -0.23427770	     -0.04344115	     -0.00083134	     -7.46325290	     -1.24449716	     -0.00528721
     42.25000000	      1.71338658	     -3.43634702	      0.07886797	     -0.81624508	      1.09546567	      0.91123745	    -20.94670993	     -2.54935219	     10.96550646	    -16.88001688	     11.99830195	     16.21889162	    -69.42913841	     39.67034522	     52.54539983	      0.00000000	     34.32000000	     30.42326055	     -1.16071730	      0.16002779	     -0.02502782	     -0.02410505	      1.71458901	     -0.19645624	     -0.25965012	      2.01715860	     -0.22513634	     -0.30246459	      2.01715860	     -0.30974127	     -0.30246459	      1.51286895	     -0.30974127	     -0.30246459	      1.00857930	     -0.28106200	     -0.12982506	     -0.23315839	     -0.04488285	      0.00971511	     -7.42759565	     -1.28579883	      0.06178660
     42.26000000	      1.75801493	     -3.32090468	      0.18916339	     -0.81572235	      1.09557490	      0.91088915	    -21.22961744	     -2.45118080	     10.48954735	    -16.82090672	     11.99684483	     16.43489697	    -68.62721319	     39.45292689	     51.65694767	      0.00000000	     34.32000000	     30.42326055	     -1.16071730	      0.13152301	     -0.03967919	     -0.02255448	      1.40917963	     -0.31146239	     -0.24294793	      1.65785433	     -0.35693191	     -0.28300832	      1.65785433	     -0.49106485	     -0.28300832	      1.24339074	     -0.49106485	     -0.28300832	      0.82892716	     -0.44559663	     -0.12147396	     -0.19868185	     -0.03286053	      0.01168648	     -6.32929599	     -0.94138493	      0.07432420
     42.27000000	      1.69353964	     -3.42884039	      0.05775449	     -0.81639604	      1.09541938	      0.91139612	    -20.97563567	     -2.55083400	     10.92044227	    -16.88454932	     11.99778613	     16.24393485	    -69.42122174	     39.69349884	     49.28626535	      0.00000000	     34.32000000	     30.42326055	     -1.16071730	      0.15962506	     -0.03586056	     -0.02057521	      1.71027400	     -0.28148801	     -0.22162808	      2.01208213	     -0.32258165	     -0.25817298	      2.01208213	     -0.44380597	     -0.25817298	      1.50906159	     -0.44380597	     -0.25817298	      1.00604106	     -0.40271350	     -0.11081404	     -0.23275597	     -0.04486827	      0.01395524	     -7.41477592	     -1.28538129	      0.08875317
     42.28000000	      1.71044717	     -3.38435067	      0.02595759	     -0.81655342	      1.09537150	      0.91126271	    -21.17866090	     -2.50419717	     10.58876953	    -16.86477434	     11.99806497	     16.40476016	    -69.35200372	     39.46684709	     46.43710945	      0.00000000	     34.32000000	     30.42326055	     -1.16071730	      0.16112877	     -0.04264410	     -0.01669049	      1.72638527	     -0.33473547	     -0.17978334	      2.03103651	     -0.38360257	     -0.20942834	      2.03103651	     -0.52775819	     -0.20942834	      1.52327739	     -0.52775819	     -0.20942834	      1.01551826	     -0.47889249	     -0.08989167	     -0.23395730	     -0.04256152	      0.01295714	     -7.45304627	     -1.21929762	      0.08240538
     42.29000000	      1.67186989	     -3.45078801	      0.03297096	     -0.81651523	      1.09534696	      0.91159608	    -20.93344613	     -2.54715138	     10.98494104	    -16.87634754	     11.99817769	     16.20695676	    -69.82464732	     39.63307353	     49.46962249	      0.00000000	     34.32000000	     30.42326055	     -1.16071730	      0.15872900	     -0.04303226	     -0.01709993	      1.70067331	     -0.33778239	     -0.18419367	      2.00078723	     -0.38709430	     -0.21456591	      2.00078723	     -0.53256209	     -0.21456591	      1.50059042	     -0.53256209	     -0.21456591	      1.00039361	     -0.48325160	     -0.09209684	     -0.23207925	     -0.04650407	      0.01666823	     -7.39321802	     -1.33224335	      0.10600736
     42.30000000	      1.65980564	     -3.44609757	      0.00944840	     -0.81665049	      1.09529218	      0.91162534	    -21.01711895	     -2.52151983	     10.84659137	    -16.86238276	     11.99866896	     16.27161868	    -69.58917597	     39.59707497	     53.43109864	      0.00000000	     34.32000000	     30.42326055	     -1.16071730	      0.15862615	     -0.04493998	     -0.02023016	      1.69957138	     -0.35275704	     -0.21791127	      1.99949085	     -0.40425505	     -0.25384329	      1.99949085	     -0.55617175	     -0.25384329	      1.49961813	     -0.55617175	     -0.25384329	      0.99974542	     -0.50467522	     -0.10895563	     -0.23200461	     -0.04839518	      0.02216908	     -7.39084039	     -1.38641989	      0.14099187
     42.31000000	      1.62652365	     -3.45346823	      0.00178586	     -0.81664177	      1.09526989	      0.91181960	    -20.99909759	     -2.53850528	     10.88016619	    -16.87596460	     11.99826071	     16.26069718	    -69.73982169	     39.60097949	     51.86271341	      0.00000000	     34.32000000	     30.42326055	     -1.16071730	      0.15838873	     -0.04676265	     -0.01738402	      1.69702756	     -0.36706415	     -0.18725385	      1.99649811	     -0.42065082	     -0.21813069	      1.99649811	     -0.57872896	     -0.21813069	      1.49737358	     -0.57872896	     -0.21813069	      0.99824906	     -0.52514382	     -0.09362693	     -0.23226803	     -0.04798829	      0.02178788	     -7.39923191	     -1.37476316	      0.13856750
     42.32000000	      1.61856702	     -3.36471121	     -0.05683313	     -0.81695137	      1.09521541	      0.91168416	    -21.26539254	     -2.52624468	     10.46158977	    -16.89537791	     11.99828515	     16.48389751	    -69.14261335	     39.50057427	     48.45934363	      0.00000000	     34.32000000	     30.42326055	     -1.16071730	      0.16215493	     -0.04718496	     -0.01400559	      1.73737985	     -0.37037907	     -0.15086271	      2.04397128	     -0.42444967	     -0.17573891	      2.04397128	     -0.58395540	     -0.17573891	      1.53297846	     -0.58395540	     -0.17573891	      1.02198564	     -0.52988634	     -0.07543136	     -0.23553379	     -0.04890669	      0.01867582	     -7.50326755	     -1.40107340	      0.11877527
     42.33000000	      1.57639225	     -3.45048923	     -0.04570074	     -0.81695542	      1.09524888	      0.91199780	    -20.91186796	     -2.59515043	     11.03588783	    -16.91870683	     11.99890953	     16.20053410	    -69.77079305	     39.75823182	     48.70434457	      0.00000000	     34.32000000	     30.42326055	     -1.16071730	      0.16066742	     -0.04675803	     -0.01338550	      1.72144216	     -0.36702788	     -0.14418337	      2.02522110	     -0.42060926	     -0.16795819	      2.02522110	     -0.57867178	     -0.16795819	      1.51891583	     -0.57867178	     -0.16795819	      1.01261055	     -0.52509194	     -0.07209168	     -0.23528916	     -0.04931664	      0.02090575	     -7.49547446	     -1.41281762	      0.13295732
     42.34000000	      1.56289832	     -3.40146991	     -0.04128205	     -0.81684955	      1.09524912	      0.91194237	    -21.03022616	     -2.52413191	     10.82704113	    -16.86627217	     11.99836501	     16.28356821	    -69.82938440	     39.61758297	     52.76974150	      0.00000000	     34.32000000	     30.42326055	     -1.16071730	      0.15915578	     -0.04611413	     -0.01828886	      1.70524598	     -0.36197353	     -0.19700041	      2.00616682	     -0.41481703	     -0.22948438	      2.00616682	     -0.57070286	     -0.22948438	      1.50462512	     -0.57070286	     -0.22948438	      1.00308341	     -0.51786087	     -0.09850020	     -0.23375659	     -0.05095070	      0.02511382	     -7.44665214	     -1.45962993	      0.15971996
     42.35000000	      1.55836405	     -3.39286282	     -0.07350354	     -0.81706218	      1.09522095	      0.91185824	    -20.96802358	     -2.53559085	     10.92789766	    -16.86982859	     11.99880244	     16.23334914	    -69.87695778	     39.69729508	     50.96986604	      0.00000000	     34.32000000	     30.42326055	     -1.16071730	      0.15975216	     -0.04644153	     -0.01703149	      1.71163580	     -0.36454346	     -0.18345646	      2.01368424	     -0.41776214	     -0.21370714	      2.01368424	     -0.57475473	     -0.21370714	      1.51026318	     -0.57475473	     -0.21370714	      1.00684212	     -0.52153758	     -0.09172823	     -0.23389627	     -0.05066427	      0.02419189	     -7.45110201	     -1.45142431	      0.15385661
     42.36000000	      1.50621956	     -3.37010567	     -0.08256466	     -0.81708265	      1.09517237	      0.91209654	    -20.99451216	     -2.47474381	     10.86479413	    -16.81608115	     11.99805226	     16.24071452	    -69.86710205	     39.56473786	     53.48825749	      0.00000000	     34.32000000	     30.42326055	     -1.16071730	      0.16003457	     -0.04450119	     -0.02358325	      1.71466161	     -0.34931274	     -0.25402949	      2.01724401	     -0.40030793	     -0.29591716	      2.01724401	     -0.55074133	     -0.29591716	      1.51293301	     -0.55074133	     -0.29591716	      1.00862200	     -0.49974760	     -0.12701475	     -0.23419881	     -0.05084146	      0.03124013	     -7.46073968	     -1.45650050	      0.19868231
